<svg xmlns:dc="http://purl.org/dc/elements/1.1/" xmlns:cc="http://creativecommons.org/ns#"
    xmlns:rdf="http://www.w3.org/1999/02/22-rdf-syntax-ns#" xmlns:svg="http://www.w3.org/2000/svg"
    xmlns="http://www.w3.org/2000/svg" viewBox="0 0 280 280" fill="none">
    <metadata>
        <rdf:RDF>
            <cc:Work>
                <dc:format>image/svg+xml</dc:format>
                <dc:type rdf:resource="http://purl.org/dc/dcmitype/StillImage" />
                <dc:title>Avataaars</dc:title>
                <dc:creator>
                    <cc:Agent>
                        <dc:title>Pablo Stanley</dc:title>
                    </cc:Agent>
                </dc:creator>
                <dc:source>https://avataaars.com/</dc:source>
                <cc:license rdf:resource="https://avataaars.com/" />
                <dc:contributor>
                    <cc:Agent>
                        <dc:title>Florian Körner</dc:title>
                    </cc:Agent>
                </dc:contributor>
            </cc:Work>
        </rdf:RDF>
    </metadata>
    <mask id="avatarsRadiusMask">
        <rect width="280" height="280" rx="0" ry="0" x="0" y="0" fill="#fff" />
    </mask>
    <g mask="url(#avatarsRadiusMask)">
        <g transform="translate(40, 36)">
            <path
                d="M100 0C69.072 0 44 25.072 44 56v6.166c-5.675.952-10 5.888-10 11.834v14c0 6.052 4.48 11.058 10.305 11.881 2.067 19.806 14.458 36.541 31.695 44.73V163h-4c-39.764 0-72 32.236-72 72v9h200v-9c0-39.764-32.236-72-72-72h-4v-18.389c17.237-8.189 29.628-24.924 31.695-44.73C161.52 99.058 166 94.052 166 88V74c0-5.946-4.325-10.882-10-11.834V56c0-30.928-25.072-56-56-56z"
                fill="#F9D562" />
            <path
                d="M76 144.611v8A55.79 55.79 0 00100 158a55.789 55.789 0 0024-5.389v-8A55.789 55.789 0 01100 150a55.79 55.79 0 01-24-5.389z"
                fill="#000" fill-opacity=".1" />
        </g>
        <g transform="translate(8, 170)">
            <path
                d="M92.68 29.936C58.295 35.366 32 65.138 32 101.052V110h200v-8.948c0-35.914-26.294-65.686-60.681-71.116a23.874 23.874 0 01-7.555 13.603l-29.085 26.229a4 4 0 01-5.358 0l-29.085-26.229a23.871 23.871 0 01-7.555-13.603z"
                fill="#FF488E" />
        </g>
        <g transform="translate(86, 134)">
            <path fill-rule="evenodd" clip-rule="evenodd"
                d="M40 29c0-7.732 6.268-14 14-14s14 6.268 14 14" fill="#000" fill-opacity=".7" />
        </g>
        <g transform="translate(112, 122)">
            <path fill-rule="evenodd" clip-rule="evenodd"
                d="M16 8c0 4.418 5.373 8 12 8s12-3.582 12-8" fill="#000" fill-opacity=".16" />
        </g>
        <g transform="translate(84, 90)">
            <path
                d="M34.5 30.7L29 25.2l-5.5 5.5c-.4.4-1.1.4-1.6 0l-1.6-1.6c-.4-.4-.4-1.1 0-1.6l5.5-5.5-5.5-5.5c-.4-.5-.4-1.2 0-1.6l1.6-1.6c.4-.4 1.1-.4 1.6 0l5.5 5.5 5.5-5.5c.4-.4 1.1-.4 1.6 0l1.6 1.6c.4.4.4 1.1 0 1.6L32.2 22l5.5 5.5c.4.4.4 1.1 0 1.6l-1.6 1.6c-.4.4-1.1.4-1.6 0zm54 0L83 25.2l-5.5 5.5c-.4.4-1.1.4-1.6 0l-1.6-1.6c-.4-.4-.4-1.1 0-1.6l5.5-5.5-5.5-5.5c-.4-.5-.4-1.2 0-1.6l1.6-1.6c.4-.4 1.1-.4 1.6 0l5.5 5.5 5.5-5.5c.4-.4 1.1-.4 1.6 0l1.6 1.6c.4.4.4 1.1 0 1.6L86.2 22l5.5 5.5c.4.4.4 1.1 0 1.6l-1.6 1.6c-.4.4-1.1.4-1.6 0z"
                fill="#000" fill-opacity=".6" />
        </g>
        <g transform="translate(84, 82)">
            <path fill-rule="evenodd" clip-rule="evenodd"
                d="M22.766 1.578l.911-.402C28.92-.905 36.865-.033 41.723 2.299c.567.272.18 1.153-.402 1.108-14.919-1.151-24.963 8.146-28.375 14.44-.101.187-.407.208-.482.034-2.308-5.319 4.45-13.985 10.302-16.303zM86.993 12.07c5.761.773 14.746 5.795 13.994 11.607-.024.19-.312.25-.436.091-2.487-3.188-21.712-7.872-28.713-6.894-.641.09-1.064-.571-.627-.984 3.744-3.536 10.62-4.518 15.782-3.82z"
                fill="#000" fill-opacity=".6" />
        </g>
        <g transform="translate(7, 0)">
            <path fill-rule="evenodd" clip-rule="evenodd"
                d="M90.91 55.361h84.176c18.247-10.527 21.673-29.21 8.764-45.435-3.214-4.04-8.764 11.75-25.821 12.725-17.058.974-15.42-6.301-33.571-3.577-18.152 2.724-16.146 17.304-27.99 20.803C84.622 43.375 90.91 55.36 90.91 55.36z"
                fill="#724133" />
        </g>
    </g>
</svg>