<svg xmlns:dc="http://purl.org/dc/elements/1.1/" xmlns:cc="http://creativecommons.org/ns#" xmlns:rdf="http://www.w3.org/1999/02/22-rdf-syntax-ns#" xmlns:svg="http://www.w3.org/2000/svg" xmlns="http://www.w3.org/2000/svg" viewBox="0 0 280 280" fill="none"><metadata><rdf:RDF><cc:Work><dc:format>image/svg+xml</dc:format><dc:type rdf:resource="http://purl.org/dc/dcmitype/StillImage"/><dc:title>Avataaars</dc:title><dc:creator><cc:Agent><dc:title>Pablo Stanley</dc:title></cc:Agent></dc:creator><dc:source>https://avataaars.com/</dc:source><cc:license rdf:resource="https://avataaars.com/"/><dc:contributor><cc:Agent><dc:title>Florian Körner</dc:title></cc:Agent></dc:contributor></cc:Work></rdf:RDF></metadata><mask id="avatarsRadiusMask"><rect width="280" height="280" rx="0" ry="0" x="0" y="0" fill="#fff"/></mask><g mask="url(#avatarsRadiusMask)"><g transform="translate(40, 36)"><path d="M100 0C69.072 0 44 25.072 44 56v6.166c-5.675.952-10 5.888-10 11.834v14c0 6.052 4.48 11.058 10.305 11.881 2.067 19.806 14.458 36.541 31.695 44.73V163h-4c-39.764 0-72 32.236-72 72v9h200v-9c0-39.764-32.236-72-72-72h-4v-18.389c17.237-8.189 29.628-24.924 31.695-44.73C161.52 99.058 166 94.052 166 88V74c0-5.946-4.325-10.882-10-11.834V56c0-30.928-25.072-56-56-56z" fill="#F9D562"/><path d="M76 144.611v8A55.79 55.79 0 00100 158a55.789 55.789 0 0024-5.389v-8A55.789 55.789 0 01100 150a55.79 55.79 0 01-24-5.389z" fill="#000" fill-opacity=".1"/></g><g transform="translate(8, 170)"><path d="M92.68 29.936C58.295 35.366 32 65.138 32 101.052V110h200v-8.948c0-35.914-26.294-65.686-60.681-71.116a23.874 23.874 0 01-7.555 13.603l-29.085 26.229a4 4 0 01-5.358 0l-29.085-26.229a23.871 23.871 0 01-7.555-13.603z" fill="#B1E2FF"/></g><g transform="translate(86, 134)"><path d="M28 26.244c1.358.488 2.84.756 4.392.756 5.322 0 9.821-3.153 11.294-7.486 2.475 2.156 6.177 3.525 10.314 3.525 4.137 0 7.84-1.37 10.314-3.525C65.787 23.847 70.286 27 75.608 27c1.552 0 3.034-.268 4.392-.756h-.054l-.063.001h-.06c-6.33 0-11.803-4.9-11.803-10.568 0-4.182 2.32-7.718 5.687-9.677-5.5.797-9.725 4.995-9.898 10.106-2.564 1.736-6.014 2.8-9.809 2.8-3.795 0-7.245-1.064-9.81-2.8-.172-5.11-4.398-9.309-9.896-10.106 3.366 1.959 5.687 5.495 5.687 9.677 0 5.668-5.474 10.568-11.804 10.568H28z" fill="#000" fill-opacity=".6" opacity=".6"/><path d="M17 24a9 9 0 100-18 9 9 0 000 18zm74 0a9 9 0 100-18 9 9 0 000 18z" fill="#FF4646" fill-opacity=".2"/></g><g transform="translate(112, 122)"><path fill-rule="evenodd" clip-rule="evenodd" d="M16 8c0 4.418 5.373 8 12 8s12-3.582 12-8" fill="#000" fill-opacity=".16"/></g><g transform="translate(84, 90)"><path d="M34.5 30.7L29 25.2l-5.5 5.5c-.4.4-1.1.4-1.6 0l-1.6-1.6c-.4-.4-.4-1.1 0-1.6l5.5-5.5-5.5-5.5c-.4-.5-.4-1.2 0-1.6l1.6-1.6c.4-.4 1.1-.4 1.6 0l5.5 5.5 5.5-5.5c.4-.4 1.1-.4 1.6 0l1.6 1.6c.4.4.4 1.1 0 1.6L32.2 22l5.5 5.5c.4.4.4 1.1 0 1.6l-1.6 1.6c-.4.4-1.1.4-1.6 0zm54 0L83 25.2l-5.5 5.5c-.4.4-1.1.4-1.6 0l-1.6-1.6c-.4-.4-.4-1.1 0-1.6l5.5-5.5-5.5-5.5c-.4-.5-.4-1.2 0-1.6l1.6-1.6c.4-.4 1.1-.4 1.6 0l5.5 5.5 5.5-5.5c.4-.4 1.1-.4 1.6 0l1.6 1.6c.4.4.4 1.1 0 1.6L86.2 22l5.5 5.5c.4.4.4 1.1 0 1.6l-1.6 1.6c-.4.4-1.1.4-1.6 0z" fill="#000" fill-opacity=".6"/></g><g transform="translate(84, 82)"><path d="M15.591 14.162c4.496-6.326 14.012-9.509 23.756-6.366a2 2 0 101.228-3.807c-11.408-3.68-22.74.11-28.244 7.856a2 2 0 103.26 2.317zm80.786 6.996c-3.914-5.509-14.647-8.598-23.892-6.328a2 2 0 01-.954-3.884c10.736-2.637 23.165.94 28.107 7.895a2 2 0 11-3.26 2.317z" fill="#000" fill-opacity=".6"/></g><g transform="translate(7, 0)"><path fill-rule="evenodd" clip-rule="evenodd" d="M193.765 70.766c-.264-3.317-.732-6.614-1.518-9.855-.625-2.576-1.478-5.034-2.487-7.491-.609-1.485-2.032-3.524-2.2-5.126-.165-1.577 1.067-3.325 1.329-5.162a15.975 15.975 0 00-.155-5.438c-.833-4.023-3.594-7.764-7.857-8.813-.952-.234-2.964.055-3.636-.5-.771-.635-1.308-2.8-2.006-3.669-1.991-2.476-5.095-4.07-8.369-3.514-2.411.409-1.027.907-2.834-.512-1.005-.788-1.756-1.993-2.732-2.847-1.467-1.283-3.15-2.38-4.892-3.282-4.557-2.358-9.754-4.072-14.844-4.908-9.285-1.524-19.195-.195-28.195 2.22-4.479 1.201-8.987 2.726-13.147 4.743-1.783.864-2.813 1.582-4.672 1.808-2.93.357-5.41.339-8.184 1.581-8.536 3.822-12.381 12.689-9.06 21.174a14.637 14.637 0 002.82 4.584c1.521 1.68 2.072 1.35.762 3.282a52.785 52.785 0 00-4.955 9.172c-3.529 8.402-4.12 17.864-3.89 26.824.081 3.137.216 6.313.71 9.42.214 1.344.274 3.872 1.282 4.87.512.506 1.241.788 1.969.587 1.71-.474 1.121-1.735 1.161-2.906.2-5.884-.07-11.089 1.33-16.901 1.033-4.295 2.755-8.195 4.988-12.036 2.838-4.884 5.903-9.173 9.806-13.355.918-.984 1.119-1.4 2.35-1.472.931-.054 2.295.584 3.2.805 1.999.487 4 .968 6.034 1.296 3.74.603 7.444.644 11.217.525 7.426-.232 14.885-.753 22.085-2.623 4.782-1.242 9.022-3.47 13.602-5.105.082-.029 1.23-.847 1.431-.814.281.047 1.977 1.826 2.263 2.05 2.226 1.746 4.667 2.479 7.07 3.83 2.964 1.667.094-.718 1.728 1.359.477.605.721 1.726 1.103 2.411a18.086 18.086 0 004.931 5.624c1.955 1.47 4.893 2.18 5.89 4.095.769 1.477 1.028 3.484 1.648 5.06 1.628 4.136 3.777 7.992 5.926 11.887 1.732 3.14 3.625 5.881 3.818 9.468.067 1.248-1.121 8.737 1.773 6.46.429-.338 1.353-4.156 1.543-4.804.772-2.633 1.046-5.381 1.395-8.086.694-5.38.923-10.498.469-15.916z" fill="#2C1B18"/></g></g></svg>