<svg xmlns:dc="http://purl.org/dc/elements/1.1/" xmlns:cc="http://creativecommons.org/ns#" xmlns:rdf="http://www.w3.org/1999/02/22-rdf-syntax-ns#" xmlns:svg="http://www.w3.org/2000/svg" xmlns="http://www.w3.org/2000/svg" viewBox="0 0 280 280" fill="none"><metadata><rdf:RDF><cc:Work><dc:format>image/svg+xml</dc:format><dc:type rdf:resource="http://purl.org/dc/dcmitype/StillImage"/><dc:title>Avataaars</dc:title><dc:creator><cc:Agent><dc:title>Pablo Stanley</dc:title></cc:Agent></dc:creator><dc:source>https://avataaars.com/</dc:source><cc:license rdf:resource="https://avataaars.com/"/><dc:contributor><cc:Agent><dc:title>Florian Körner</dc:title></cc:Agent></dc:contributor></cc:Work></rdf:RDF></metadata><mask id="avatarsRadiusMask"><rect width="280" height="280" rx="0" ry="0" x="0" y="0" fill="#fff"/></mask><g mask="url(#avatarsRadiusMask)"><g transform="translate(40, 36)"><path d="M100 0C69.072 0 44 25.072 44 56v6.166c-5.675.952-10 5.888-10 11.834v14c0 6.052 4.48 11.058 10.305 11.881 2.067 19.806 14.458 36.541 31.695 44.73V163h-4c-39.764 0-72 32.236-72 72v9h200v-9c0-39.764-32.236-72-72-72h-4v-18.389c17.237-8.189 29.628-24.924 31.695-44.73C161.52 99.058 166 94.052 166 88V74c0-5.946-4.325-10.882-10-11.834V56c0-30.928-25.072-56-56-56z" fill="#F9D562"/><path d="M76 144.611v8A55.79 55.79 0 00100 158a55.789 55.789 0 0024-5.389v-8A55.789 55.789 0 01100 150a55.79 55.79 0 01-24-5.389z" fill="#000" fill-opacity=".1"/></g><g transform="translate(8, 170)"><path d="M100.374 29.141c1.88-2.864 4.479-5.43 7.626-7.57v15.306c0 5.823 3.978 10.976 10.078 14.118l-.078.062.909 2.865c3.878 1.994 8.341 3.13 13.091 3.13s9.213-1.136 13.091-3.13l.909-2.865-.078-.062C152.022 47.853 156 42.7 156 36.877V22.279c2.684 1.979 4.923 4.28 6.597 6.819C201.159 30.465 232 62.157 232 101.052V110H32v-8.948c0-38.549 30.294-70.022 68.374-71.91z" fill="#5199E4"/><path d="M108 21.572c-6.767 4.602-11 11.168-11 18.456 0 7.398 4.362 14.052 11.308 18.664l6.113-4.816 4.579.332-1-3.151.078-.062C111.978 47.853 108 42.7 108 36.877V21.57zm48 15.305c0 5.823-3.978 10.976-10.078 14.118l.078.062-1 3.15 4.579-.33 5.65 4.45C161.863 53.733 166 47.234 166 40.027c0-6.921-3.818-13.192-10-17.748v14.598z" fill="#fff" fill-opacity=".75"/></g><g transform="translate(86, 134)"><path fill-rule="evenodd" clip-rule="evenodd" d="M35.118 29.872C36.176 20.38 44.226 13 54 13c9.804 0 17.874 7.426 18.892 16.96.082.767-.775 2.04-1.85 2.04H37.088c-1.08 0-2.075-1.178-1.97-2.128z" fill="#000" fill-opacity=".7"/><path d="M69.586 32H38.414c1.306-4.617 5.55-8 10.586-8 1.8 0 3.5.433 5 1.2 1.5-.767 3.2-1.2 5-1.2 5.035 0 9.28 3.383 10.586 8z" fill="#FF4F6D"/><path d="M66.567 17.75c-.493.162-1.02.25-1.567.25H44a4.98 4.98 0 01-2.243-.53A18.923 18.923 0 0154 13c4.818 0 9.218 1.794 12.567 4.75z" fill="#fff"/></g><g transform="translate(112, 122)"><path fill-rule="evenodd" clip-rule="evenodd" d="M16 8c0 4.418 5.373 8 12 8s12-3.582 12-8" fill="#000" fill-opacity=".16"/></g><g transform="translate(84, 90)"><circle cx="82" cy="22" r="12" fill="#fff"/><circle cx="82" cy="22" r="6" fill="#000" fill-opacity=".7"/><path fill-rule="evenodd" clip-rule="evenodd" d="M16.16 25.447C18.007 21.648 22.164 19 26.998 19c4.816 0 8.961 2.63 10.817 6.407.552 1.122-.233 2.04-1.024 1.36-2.451-2.107-5.932-3.423-9.793-3.423-3.74 0-7.124 1.235-9.56 3.228-.891.728-1.818-.014-1.278-1.125z" fill="#000" fill-opacity=".6"/></g><g transform="translate(84, 82)"><path d="M38.028 5.591c-1.48 8.389-14.09 14.18-23.238 10.432-1.015-.416-2.19.031-2.627.999-.436.968.033 2.09 1.048 2.505 11.444 4.69 26.835-2.38 28.762-13.303.183-1.039-.551-2.023-1.64-2.197-1.09-.175-2.121.525-2.305 1.564zm35.945 0c1.48 8.389 14.09 14.18 23.238 10.432 1.014-.416 2.19.031 2.627.999.436.968-.033 2.09-1.048 2.505-11.444 4.69-26.835-2.38-28.762-13.303-.183-1.039.551-2.023 1.64-2.197 1.09-.175 2.121.525 2.305 1.564z" fill="#000" fill-opacity=".6"/></g><g transform="translate(7, 0)"><path d="M242.135 168.863c4.834 6.791 11.097 14.001 12.243 22.053.455 3.198.708 16.236-7.542 11.431-.269 4.365-.967 4.985.34 9.206.886 2.859 2.08 8.615-3.864 8.095 2.257 6.175 5.881 14.765 2.483 21.16-5.588 10.517-11.893-2.733-13.571-7.485.102 3.279-3.425 9.19-7.838 4.63.348 5.413 2.513 13.778-.661 18.854-6.16 9.853-12.976-2.621-13.205-7.897-1.111 3.565-.275 12.137-7.592 10.151-6.325-1.716-4.039-10.09-2.816-13.87-2.011 3.557-4.482 8.853-4.871 12.869-.336 3.453 2.941 11.57-5.555 10.05-6.52-1.166-6.753-10.892-6.642-15.179.091-3.477 3.455-11.427 1.177-14.256-12.728 5.341.608 23.308-10.952 27.302-3.84 1.327-7.034-1.179-8.321-4.639.402-1.694-.357-2.562-2.276-2.605-1.216-1.478-2.015-1.434-2.801-3.651-2.313-6.521 2.191-15.19 5.429-21.005-3.352 3.057-6.053 7.256-9.69 9.916-2.461 1.799-6.086 2.311-8.385-.176-2.518-2.723-.139-5.334 1.219-7.817 3-5.485 7.727-8.68 12.668-13.082 4.319-3.848 8.169-8.179 12-12.367 2.557-2.794 5.001-5.799 7.051-8.973A72.089 72.089 0 00161 199h-4v-18.389a56.238 56.238 0 0025.804-24.981c.105-3.28.278-7.112.462-11.201.546-12.084 1.193-26.407.481-35.337l-.202-2.585c-1.114-14.358-1.787-23.023-11.991-36.058-4.562-5.828-13.185-7.674-21.724-9.502-8.085-1.73-16.095-3.445-20.512-8.508-4.124 4.78-10.142 7.32-16.735 8.99-1.454.368-2.909.667-4.341.962-4.986 1.025-9.692 1.992-13.079 5.602-7.802 8.314-11.237 13.88-13.626 24.255-2.648 11.5-3.341 22.898-2.536 34.578.13 1.88.224 3.782.32 5.692.352 7.095.712 14.322 2.89 21.104A56.225 56.225 0 00109 180.611V199h-4c-1.1 0-2.194.025-3.282.074.671 3.437 1.092 6.93.812 10.34-.41 4.99-1.345 9.653-.846 14.703 1.036 10.501 5.408 20.483 9.017 30.507 1.734 4.815 9.357 10.482 6.23 14.46-3.127 3.977-13.815-5.47-16.206-10.05-2.433-4.662-4.646-9.408-7.18-14.034 1.486 6.462 2.773 13.092 4.8 19.411 1.368 4.266 3.439 10.723-2.278 11.944-8.943 1.91-9.29-12.589-10.174-16.91-1.472-7.183-3.106-9.973-5.51-16.97-.478 5.344.352 10.912-.804 16.202-.697 3.19-4.356 5.829-6.555 8.534-7.532 9.275-9.325-6.284-11.235-10.551-3.305 2.401-10.5 7.16-14.908 4.139-3.255-2.231-1.187-6.273-.43-9.033 1.217-4.446 1.941-8.842-1.315-12.869-3.087 3.003-9.918 4.752-13.878 1.882-5.007-3.63-.615-8.936 1.629-12.702 4.329-7.261 4.07-15.869 5.442-23.941.46-2.701 1.064-6.259.298-8.121-1.1-2.672-2.299-2.698-4.735-2.09-3.449.862-6.29 2.79-6.873 5.578-.843 4.025 3.568 5.612 3.929 9.12.776 7.55-8.703 4.005-11.523.617-6.959-8.358-1.266-18.225 4.21-25.558 1.863-2.495 2.405-3.22 2.016-6.48-.766-6.416-2.503-12.183-1.879-18.727.856-8.962 4.306-17.434 9.351-24.818 3.454-5.053 5.284-9.449 5.783-15.563 1.418-17.389 7.32-35.281 15.058-50.748 3.968-7.93 7.96-16.487 14.828-22.391 2.23-1.917 6.24-2.8 8.165-4.654 3.567-3.434.44-9.494 4.953-13.389 3.781-3.264 8.173-2.183 12.275-3.945 4.218-1.811 5.116-7.42 10.217-8.61 5.163-1.203 9.289 2.182 13.661 3.804 6.425 2.383 10.446 1.688 16.755-.306l.082-.026c4.192-1.325 6.95-2.196 10.89.101 2.562 1.494 4.534 5.946 7.656 6.373 3.803.52 9.139-3.04 13.358-2.909 6.449.203 9.583 4.243 12.251 8.557 1.546 2.5 4.402 3.668 6.102 6.147.615.897 1.237 1.804 2.122 2.612 6.312 5.768 14.583 10.246 21.37 15.682 12.666 10.147 15.661 23.878 16.48 37.827.657 11.18-.365 24.312 6.743 34.313 3.71 5.219 7.82 9.733 10.018 15.852.785 2.186 1.865 5.194.523 7.111-1.809 2.584-6.359 2.61-8.316.142-1.897 5.874 4.572 14.355 8.038 19.226z" fill="#4A312C"/><path d="M182.502 156.207c-.077 2.994-.01 5.972.373 8.849.332 2.495.843 4.915 1.35 7.314 1.126 5.334 2.23 10.561 1.291 16.266-.745 4.532-2.725 8.876-5.352 12.942A72.102 72.102 0 00161 199h-4v-18.389a56.236 56.236 0 0025.502-24.404zm-80.784 42.867c-.361-1.852-.794-3.687-1.23-5.484-2.137-8.82-6.422-16.627-10.77-24.55-1.898-3.457-3.808-6.936-5.556-10.531a37.078 37.078 0 01-1.95-4.887A56.227 56.227 0 00109 180.611V199h-4c-1.1 0-2.194.025-3.282.074z" fill="#000" fill-opacity=".24"/><path d="M102.48 33.51c-1.672 0-12.16 4.743-8.24 6.149 2.396.859 12.498-6.15 8.24-6.15zm68.568 13.847c-.846.38-.832.738.043 1.071.846-.38.832-.737-.043-1.071zm24.465 18.241l-.001-.001c-.58-1.252-1.087-2.345-1.372-2.753-.888-1.27-6.237-8.4-2.472-7.513 2.086.49 4.89 6.183 6.155 8.751l.001.002c.772 1.567 4.278 7.113.718 6.743-.634-.066-1.957-2.917-3.029-5.229zm8.51 45.147c-.154-1.164.249-4.751-2.458-3.41-1.809.897.661 11.717.816 13.122.146 1.318.3 2.636.455 3.953l.001.012v.002l.001.011c.608 6.077 1.418 12.108 1.33 18.231-.011.763-1.192 6.667 1.55 5.413 1.46-.667.777-8.745.568-11.218-.734-8.707-1.107-17.449-2.263-26.116zM65.361 122.248c.082 1.581-.703 9.748 1.43 9.799 1.825.044 1.24-8.401 1.004-11.83-.082-1.08-.08-11.139-2.106-9.908-2.308 1.402-.453 9.517-.328 11.939zm8.434 57.75c.011-1.428.821-14.445-1.904-11.376-1.363 1.535-.47 7.014-.34 8.873.049.707-.525 2.863.413 3.191.759.265 1.823.326 1.831-.688zm-25.674 13.164c1.93-.055.144-37.832-2.821-37.79-2.082.029 1.361 37.826 2.822 37.79zm2.232 19.354c-2.397 0-1.956 8.462-.544 9.139 2.14 1.025 3.226-9.139.544-9.139zm15.237 3.539c.021 1.058-1.178 1.074-1.979.744-.717-.297-.631-2.311-.58-3.487.047-1.109-.152-2.194-.314-3.289-.502-3.382-1.259-8.482.044-9.655 1.975-1.778 2.018.173 2.549 1.498 1.564 3.903.196 10.032.28 14.189zm137.433-46.468c-2.532-.501-3.857 8.094-2.702 9.016 1.917 1.53 5.349-8.49 2.702-9.016zm-.268 37.798c-1.138-.226-9.433 15.733-8.75 16.635 1.299 1.719 12.829-15.82 8.75-16.635zm-20.422 7.374c-1.781-.803-9.334 10.751-7.406 11.619 1.748.786 9.562-10.652 7.406-11.619zm42.093-43.312c-2.151 0-2.056 11.822-.4 12.568 1.711.771 2.942-12.568.4-12.568zM83.512 54.191c1.261-.643 5.444-.859 3.107 1.295-2.005 1.844-9.543 12.519-12.126 12.626-4.226.175 2.586-7.24 4.76-9.606 1.327-1.445 2.485-3.409 4.26-4.315zM59.254 83.98c-2.182-.428-5.835 10.266-4.56 11.556 1.923 1.95 7.007-11.07 4.56-11.555zm22.147 117.87c.478-2.608 2.375-.201 2.792 1.142.413 1.341 4.632 11.08 3.571 12.361-1.633 1.972-2.34-1.375-2.898-2.573-1.318-2.834-3.922-8.433-3.465-10.93zm-5.414 23.966c-2.295 0-2.03 9.802-.664 10.385 2.117.902 3.479-10.385.664-10.385zm156.823-21.94c2.237 4.407 3.913 8.871 4.981 13.571.137.603 2.055 5.562-.662 4.844-1.562-.413-1.803-4.785-2.202-6.11-.519-1.724-1.539-3.624-2.573-5.547-1.416-2.636-2.855-5.316-3.059-7.647-.34-3.897 1.841-2.412 3.515.889zm-14.721 13.075c-2.131-.01-2.235 10.773-.901 11.402 1.863.878 3.621-11.402.901-11.402zm6.161-88.297c1.582-.412-3.41-13.325-5.178-13.183-2.694.218 2.776 13.803 5.178 13.183zm-26.816 56.093c-.846.381-.832.738.043 1.072.846-.381.832-.739-.043-1.072zm-24.217 55.241c.793 0 1.121-1.224-.052-1.252-.775.007-1.184 1.252.052 1.252zm-98.532-55.359c.03-1.909-2.47-.509-2.454 1.101.033 3.214 2.401 1.746 2.454-1.101zm-6.165-47.746c-.805 0-1.134 1.237.05 1.266.784-.006 1.198-1.266-.05-1.266zm-20.743 62.556c-.09-.003 1.532-1.987 1.61-.046.06 1.463-1.322.053-1.61.046zM53.6 98.063c-2.368 0-2.024 5.754-.513 6.123 2.52.616 2.864-6.123.513-6.123zm12.613 124.263c-2.285 0-2.44 7.814-.862 8.3 2.45.754 3.243-8.3.862-8.3zm-18.756 5.606c-.872.391-.858.76.042 1.104.873-.392.858-.759-.042-1.104zm169.999 3.351c-2.32 0-2.229 9.553-.805 10.199 1.99.902 3.488-10.199.805-10.199zm-23.51 8.879c-2.411-.482-3.673 7.405-2.55 8.29 1.853 1.459 5.026-7.796 2.55-8.29zm-20.481 7.289c-1.997 0-1.506 3.575-.354 4.107 1.994.92 2.584-4.107.354-4.107z" fill="#fff" fill-opacity=".3"/></g></g></svg>