<svg xmlns:dc="http://purl.org/dc/elements/1.1/" xmlns:cc="http://creativecommons.org/ns#" xmlns:rdf="http://www.w3.org/1999/02/22-rdf-syntax-ns#" xmlns:svg="http://www.w3.org/2000/svg" xmlns="http://www.w3.org/2000/svg" viewBox="0 0 280 280" fill="none"><metadata><rdf:RDF><cc:Work><dc:format>image/svg+xml</dc:format><dc:type rdf:resource="http://purl.org/dc/dcmitype/StillImage"/><dc:title>Avataaars</dc:title><dc:creator><cc:Agent><dc:title>Pablo Stanley</dc:title></cc:Agent></dc:creator><dc:source>https://avataaars.com/</dc:source><cc:license rdf:resource="https://avataaars.com/"/><dc:contributor><cc:Agent><dc:title>Florian Körner</dc:title></cc:Agent></dc:contributor></cc:Work></rdf:RDF></metadata><mask id="avatarsRadiusMask"><rect width="280" height="280" rx="0" ry="0" x="0" y="0" fill="#fff"/></mask><g mask="url(#avatarsRadiusMask)"><g transform="translate(40, 36)"><path d="M100 0C69.072 0 44 25.072 44 56v6.166c-5.675.952-10 5.888-10 11.834v14c0 6.052 4.48 11.058 10.305 11.881 2.067 19.806 14.458 36.541 31.695 44.73V163h-4c-39.764 0-72 32.236-72 72v9h200v-9c0-39.764-32.236-72-72-72h-4v-18.389c17.237-8.189 29.628-24.924 31.695-44.73C161.52 99.058 166 94.052 166 88V74c0-5.946-4.325-10.882-10-11.834V56c0-30.928-25.072-56-56-56z" fill="#F9D562"/><path d="M76 144.611v8A55.79 55.79 0 00100 158a55.789 55.789 0 0024-5.389v-8A55.789 55.789 0 01100 150a55.79 55.79 0 01-24-5.389z" fill="#000" fill-opacity=".1"/></g><g transform="translate(8, 170)"><path d="M196 38.632V110H68V38.632a71.525 71.525 0 0126-8.944V74h76V29.688a71.523 71.523 0 0126 8.944z" fill="#FFFFFF"/><path d="M86 83a5 5 0 11-10 0 5 5 0 0110 0zm102 0a5 5 0 11-10 0 5 5 0 0110 0z" fill="#F4F4F4"/></g><g transform="translate(86, 134)"><path fill-rule="evenodd" clip-rule="evenodd" d="M34.008 38.864C35.128 24.876 38.234 13.008 53.996 13c15.762-.008 18.92 11.943 19.998 25.994.087 1.13-.82 2.006-1.957 2.006-6.687 0-9.367-1.994-18.048-2-8.68-.006-13.232 2-17.896 2-1.144 0-2.197-.737-2.085-2.136z" fill="#000" fill-opacity=".7"/><path d="M67.024 17.573A4.982 4.982 0 0165 18H44a4.977 4.977 0 01-2.672-.773c2.897-2.66 6.95-4.224 12.668-4.227 5.95-.003 10.104 1.698 13.028 4.573z" fill="#fff"/><path d="M69.804 40.922c-2.05-.146-3.757-.477-5.547-.824C61.53 39.57 58.61 39.003 53.99 39c-5.013-.004-8.65.664-11.725 1.229-1.45.266-2.774.509-4.06.648C39.195 35.818 43.652 32 49 32c1.8 0 3.5.433 5 1.2 1.5-.767 3.2-1.2 5-1.2 5.365 0 9.832 3.84 10.804 8.922z" fill="#FF4F6D"/></g><g transform="translate(112, 122)"><path fill-rule="evenodd" clip-rule="evenodd" d="M16 8c0 4.418 5.373 8 12 8s12-3.582 12-8" fill="#000" fill-opacity=".16"/></g><g transform="translate(84, 90)"><path fill-rule="evenodd" clip-rule="evenodd" d="M16.16 22.447C18.007 18.648 22.164 16 26.998 16c4.816 0 8.961 2.63 10.817 6.407.552 1.122-.233 2.04-1.024 1.36-2.451-2.107-5.932-3.423-9.793-3.423-3.74 0-7.124 1.235-9.56 3.228-.891.728-1.818-.014-1.278-1.125zm58 0C76.007 18.648 80.164 16 84.998 16c4.816 0 8.961 2.63 10.817 6.407.552 1.122-.233 2.04-1.024 1.36-2.451-2.107-5.932-3.423-9.793-3.423-3.74 0-7.124 1.235-9.56 3.228-.891.728-1.818-.014-1.278-1.125z" fill="#000" fill-opacity=".6"/></g><g transform="translate(84, 82)"><path fill-rule="evenodd" clip-rule="evenodd" d="M44.095 17.125c.004-.009.004-.009 0 0zM19.284 5.005c-2.368-.266-4.858.497-6.427 2.434-.59.728-1.553 2.48-1.509 3.417.017.356.225.375 1.124.59 1.646.392 4.5-1.114 6.355-.972 2.582.198 5.046 1.395 7.283 2.679 3.838 2.202 8.354 6.84 13.093 6.598.353-.018 5.42-1.739 4.41-2.723-.316-.484-3.034-1.128-3.501-1.361-2.172-1.084-4.367-2.448-6.443-3.718-4.528-2.772-8.944-6.338-14.385-6.944zm48.746 12.12c-.004-.009-.004-.009 0 0zm24.876-12.12c2.367-.266 4.857.497 6.426 2.434.59.728 1.554 2.48 1.509 3.417-.017.356-.225.375-1.124.59-1.645.392-4.5-1.114-6.355-.972-2.582.198-5.046 1.395-7.282 2.679-3.839 2.202-8.355 6.84-13.093 6.598-.353-.018-5.42-1.739-4.411-2.723.317-.484 3.034-1.128 3.502-1.361 2.171-1.084 4.367-2.448 6.442-3.718 4.528-2.772 8.945-6.338 14.386-6.944z" fill="#000" fill-opacity=".6"/></g><g transform="translate(7, 0)"><path d="M40 145c-.617-30.836 28.319-95.205 39-108 7.923-9.491 29.695-17.45 54-17 24.305.45 46.862 5.812 55 16 12.324 15.428 37.869 74.079 38 109 .093 24.8-9.537 49.66-23 51-7.601.757-17.257-.226-28.859-1.406-5.309-.54-11.026-1.121-17.141-1.597v-12.386c18.92-8.988 32-28.272 32-50.611v-28.436c-10.509-5.79-19.455-12.78-26.909-19.882 3.356 6.24 7.194 11.908 11.522 16.191-30.582-8.58-51.724-26.152-64.393-39.93-5.825 11.08-16.257 27.282-32.22 39.625V130c0 22.339 13.08 41.623 32 50.611v13.135c-6.952.951-13.414 2.159-19.36 3.271h-.002c-10.849 2.028-19.983 3.735-27.254 2.983-14.222-1.469-21.888-30.204-22.384-55z" fill="#E8E1E1"/></g><g transform="translate(69, 85)"><path fill-rule="evenodd" clip-rule="evenodd" d="M40 53c-13.255 0-24-10.745-24-24 0-2.435.363-4.785 1.037-7H10.5a2.5 2.5 0 010-5h8c.229 0 .45.03.66.088C23.297 9.866 31.08 5 40 5c9.352 0 17.455 5.35 21.416 13.155C63.493 15.039 66.949 13 70.862 13c4.013 0 7.545 2.144 9.603 5.394C84.38 10.46 92.553 5 102 5c8.92 0 16.703 4.866 20.84 12.088a2.52 2.52 0 01.66-.088h8a2.5 2.5 0 110 5h-6.537A24.006 24.006 0 01126 29c0 13.255-10.745 24-24 24S78 42.255 78 29c0-1.422.124-2.815.36-4.169C78.277 20.455 74.915 17 70.863 17c-3.736 0-6.887 2.94-7.42 6.83.365 1.665.558 3.395.558 5.17 0 13.255-10.745 24-24 24zm0-4c11.046 0 20-8.954 20-20S51.046 9 40 9s-20 8.954-20 20 8.954 20 20 20zm82-20c0 11.046-8.954 20-20 20s-20-8.954-20-20 8.954-20 20-20 20 8.954 20 20z" fill="#000" fill-opacity=".1"/><path fill-rule="evenodd" clip-rule="evenodd" d="M40 51c-13.255 0-24-10.745-24-24 0-2.435.363-4.785 1.037-7H10.5a2.5 2.5 0 010-5h8c.229 0 .45.03.66.088C23.297 7.866 31.08 3 40 3c9.352 0 17.455 5.35 21.416 13.155C63.493 13.039 66.949 11 70.862 11c4.013 0 7.545 2.144 9.603 5.394C84.38 8.46 92.553 3 102 3c8.92 0 16.703 4.866 20.84 12.088a2.52 2.52 0 01.66-.088h8a2.5 2.5 0 110 5h-6.537A24.006 24.006 0 01126 27c0 13.255-10.745 24-24 24S78 40.255 78 27c0-1.422.124-2.815.36-4.169C78.277 18.455 74.915 15 70.863 15c-3.736 0-6.887 2.94-7.42 6.83.365 1.665.558 3.395.558 5.17 0 13.255-10.745 24-24 24zm0-4c11.046 0 20-8.954 20-20S51.046 7 40 7s-20 8.954-20 20 8.954 20 20 20zm82-20c0 11.046-8.954 20-20 20s-20-8.954-20-20 8.954-20 20-20 20 8.954 20 20z" fill="#FF488E"/></g></g></svg>