<svg xmlns:dc="http://purl.org/dc/elements/1.1/" xmlns:cc="http://creativecommons.org/ns#" xmlns:rdf="http://www.w3.org/1999/02/22-rdf-syntax-ns#" xmlns:svg="http://www.w3.org/2000/svg" xmlns="http://www.w3.org/2000/svg" viewBox="0 0 280 280" fill="none"><metadata><rdf:RDF><cc:Work><dc:format>image/svg+xml</dc:format><dc:type rdf:resource="http://purl.org/dc/dcmitype/StillImage"/><dc:title>Avataaars</dc:title><dc:creator><cc:Agent><dc:title>Pablo Stanley</dc:title></cc:Agent></dc:creator><dc:source>https://avataaars.com/</dc:source><cc:license rdf:resource="https://avataaars.com/"/><dc:contributor><cc:Agent><dc:title>Florian Körner</dc:title></cc:Agent></dc:contributor></cc:Work></rdf:RDF></metadata><mask id="avatarsRadiusMask"><rect width="280" height="280" rx="0" ry="0" x="0" y="0" fill="#fff"/></mask><g mask="url(#avatarsRadiusMask)"><g transform="translate(40, 36)"><path d="M100 0C69.072 0 44 25.072 44 56v6.166c-5.675.952-10 5.888-10 11.834v14c0 6.052 4.48 11.058 10.305 11.881 2.067 19.806 14.458 36.541 31.695 44.73V163h-4c-39.764 0-72 32.236-72 72v9h200v-9c0-39.764-32.236-72-72-72h-4v-18.389c17.237-8.189 29.628-24.924 31.695-44.73C161.52 99.058 166 94.052 166 88V74c0-5.946-4.325-10.882-10-11.834V56c0-30.928-25.072-56-56-56z" fill="#AE5D29"/><path d="M76 144.611v8A55.79 55.79 0 00100 158a55.789 55.789 0 0024-5.389v-8A55.789 55.789 0 01100 150a55.79 55.79 0 01-24-5.389z" fill="#000" fill-opacity=".1"/></g><g transform="translate(8, 170)"><path d="M100.374 29.141c1.88-2.864 4.479-5.43 7.626-7.57v15.306c0 5.823 3.978 10.976 10.078 14.118l-.078.062.909 2.865c3.878 1.994 8.341 3.13 13.091 3.13s9.213-1.136 13.091-3.13l.909-2.865-.078-.062C152.022 47.853 156 42.7 156 36.877V22.279c2.684 1.979 4.923 4.28 6.597 6.819C201.159 30.465 232 62.157 232 101.052V110H32v-8.948c0-38.549 30.294-70.022 68.374-71.91z" fill="#E5E5E5"/><path d="M108 21.572c-6.767 4.602-11 11.168-11 18.456 0 7.398 4.362 14.052 11.308 18.664l6.113-4.816 4.579.332-1-3.151.078-.062C111.978 47.853 108 42.7 108 36.877V21.57zm48 15.305c0 5.823-3.978 10.976-10.078 14.118l.078.062-1 3.15 4.579-.33 5.65 4.45C161.863 53.733 166 47.234 166 40.027c0-6.921-3.818-13.192-10-17.748v14.598z" fill="#fff" fill-opacity=".75"/></g><g transform="translate(86, 134)"><path fill-rule="evenodd" clip-rule="evenodd" d="M34.008 30.398c1.12-10.49 4.226-19.392 19.988-19.398 15.762-.006 18.92 8.957 19.998 19.495.087.848-.82 1.505-1.957 1.505-6.687 0-9.367-1.495-18.048-1.5-8.68-.005-13.232 1.5-17.896 1.5-1.144 0-2.197-.552-2.085-1.602z" fill="#000" fill-opacity=".7"/><path d="M67.862 15.1c-.81.567-1.798.9-2.862.9H44a4.982 4.982 0 01-3.376-1.311c2.933-2.31 7.174-3.687 13.372-3.689 6.543-.002 10.914 1.54 13.866 4.1z" fill="#fff"/><path d="M42 25a6 6 0 00-6 6v7a6 6 0 0012 0v-2h.083a6.002 6.002 0 0111.834 0H60a6 6 0 0012 0v-5a6 6 0 00-6-6H42z" fill="#7BB24B"/><path d="M72 31a6 6 0 00-6-6H42a6 6 0 00-6 6v6a6 6 0 0012 0v-2h.083a6.002 6.002 0 0111.834 0H60a6 6 0 0012 0v-4z" fill="#88C553"/></g><g transform="translate(112, 122)"><path fill-rule="evenodd" clip-rule="evenodd" d="M16 8c0 4.418 5.373 8 12 8s12-3.582 12-8" fill="#000" fill-opacity=".16"/></g><g transform="translate(84, 90)"><path d="M35.958 10c-2.55 0-5.074 1.98-6.458 3.82-1.39-1.84-3.907-3.82-6.458-3.82C17.552 10 14 13.334 14 17.641c0 5.73 4.412 9.13 9.042 12.736 1.653 1.236 4.78 4.4 5.166 5.094.386.693 2.106.718 2.584 0 .477-.718 3.51-3.858 5.166-5.094C40.585 26.77 45 23.37 45 17.64c0-4.306-3.552-7.64-9.042-7.64zm53 0c-2.55 0-5.074 1.98-6.458 3.82-1.39-1.84-3.907-3.82-6.458-3.82C70.552 10 67 13.334 67 17.641c0 5.73 4.412 9.13 9.042 12.736 1.653 1.236 4.78 4.4 5.166 5.094.386.693 2.106.718 2.584 0 .477-.718 3.51-3.858 5.166-5.094C93.585 26.77 98 23.37 98 17.64c0-4.306-3.552-7.64-9.042-7.64z" fill="#FF5353" fill-opacity=".8"/></g><g transform="translate(84, 82)"><path d="M15.611 15.184c4.24-5.768 6.878-5.483 13.313-.627l.67.507C34.422 18.726 36.708 20 40 20a2 2 0 100-4c-2.066 0-3.901-1.022-7.989-4.123l-.678-.514c-3.76-2.836-5.959-4.076-8.695-4.37-3.684-.399-7.058 1.48-10.25 5.822a2 2 0 103.223 2.37zm80.777 0c-4.24-5.768-6.877-5.483-13.312-.627l-.67.507C77.578 18.726 75.292 20 72 20a2 2 0 110-4c2.066 0 3.901-1.022 7.989-4.123l.678-.514c3.76-2.836 5.959-4.076 8.695-4.37 3.684-.399 7.058 1.48 10.25 5.822a2 2 0 11-3.224 2.37z" fill="#000" fill-opacity=".6"/></g><g transform="translate(7, 0)"><path fill-rule="evenodd" clip-rule="evenodd" d="M69.033 76.213c12.938-33.084 26.613-49.626 41.025-49.626.539 0 29.253-.238 48.055-.36C178.767 35.585 193 55.304 193 78.115V93h-82.942l-2.805-23.18L103.374 93H69V78.115c0-.637.011-1.27.033-1.902z" fill="#000" fill-opacity=".16"/><path d="M40 145c-.085-18.985 30.32-97.205 41-110 7.923-9.491 27.695-15.45 52-15 24.305.45 44.862 3.812 53 14 12.324 15.428 40.085 92.015 40 111-.099 21.266-9.622 33.59-18.609 45.221-1.494 1.933-2.972 3.847-4.391 5.779-10.279-2.665-27.854-5.184-46-6.682v-8.707c18.92-8.988 32-28.272 32-50.611V92a56.96 56.96 0 00-.14-4h-76.802l-2.805-21.444L105.374 88H77.141a56.837 56.837 0 00-.14 4v38c0 22.339 13.08 41.623 31.999 50.611v8.707c-18.145 1.498-35.72 4.017-46 6.682-1.418-1.932-2.896-3.845-4.39-5.777v-.002C49.623 178.591 40.1 166.266 40 145z" fill="#4A312C"/></g></g></svg>