<svg xmlns:dc="http://purl.org/dc/elements/1.1/" xmlns:cc="http://creativecommons.org/ns#" xmlns:rdf="http://www.w3.org/1999/02/22-rdf-syntax-ns#" xmlns:svg="http://www.w3.org/2000/svg" xmlns="http://www.w3.org/2000/svg" viewBox="0 0 280 280" fill="none"><metadata><rdf:RDF><cc:Work><dc:format>image/svg+xml</dc:format><dc:type rdf:resource="http://purl.org/dc/dcmitype/StillImage"/><dc:title>Avataaars</dc:title><dc:creator><cc:Agent><dc:title>Pablo Stanley</dc:title></cc:Agent></dc:creator><dc:source>https://avataaars.com/</dc:source><cc:license rdf:resource="https://avataaars.com/"/><dc:contributor><cc:Agent><dc:title>Florian Körner</dc:title></cc:Agent></dc:contributor></cc:Work></rdf:RDF></metadata><mask id="avatarsRadiusMask"><rect width="280" height="280" rx="0" ry="0" x="0" y="0" fill="#fff"/></mask><g mask="url(#avatarsRadiusMask)"><g transform="translate(40, 36)"><path d="M100 0C69.072 0 44 25.072 44 56v6.166c-5.675.952-10 5.888-10 11.834v14c0 6.052 4.48 11.058 10.305 11.881 2.067 19.806 14.458 36.541 31.695 44.73V163h-4c-39.764 0-72 32.236-72 72v9h200v-9c0-39.764-32.236-72-72-72h-4v-18.389c17.237-8.189 29.628-24.924 31.695-44.73C161.52 99.058 166 94.052 166 88V74c0-5.946-4.325-10.882-10-11.834V56c0-30.928-25.072-56-56-56z" fill="#FFDBB4"/><path d="M76 144.611v8A55.79 55.79 0 00100 158a55.789 55.789 0 0024-5.389v-8A55.789 55.789 0 01100 150a55.79 55.79 0 01-24-5.389z" fill="#000" fill-opacity=".1"/></g><g transform="translate(8, 170)"><path d="M108 14.694C92.484 18.38 80.895 25.529 77.228 34.142 50.72 44.765 32 70.696 32 101v9h200v-9.001c0-30.303-18.721-56.234-45.228-66.858-3.667-8.613-15.256-15.761-30.772-19.447V32c0 13.255-10.745 24-24 24s-24-10.745-24-24V14.694z" fill="#B1E2FF"/><path d="M102 63.337a67.11 67.11 0 01-7-2.817V110h7V63.337zm60 0a67.039 67.039 0 007-2.817V98.5a3.5 3.5 0 11-7 0V63.337z" fill="#F4F4F4"/><path d="M187.62 34.488a71.788 71.788 0 0110.832 5.628C197.107 55.615 167.87 68 132 68c30.928 0 56-13.431 56-30 0-1.188-.129-2.36-.38-3.512zm-111.24 0A16.477 16.477 0 0076 38c0 16.569 25.072 30 56 30-35.87 0-65.107-12.385-66.452-27.884a71.783 71.783 0 0110.832-5.628z" fill="#000" fill-opacity=".16"/></g><g transform="translate(86, 134)"><path fill-rule="evenodd" clip-rule="evenodd" d="M34.008 30.398c1.12-10.49 4.226-19.392 19.988-19.398 15.762-.006 18.92 8.957 19.998 19.495.087.848-.82 1.505-1.957 1.505-6.687 0-9.367-1.495-18.048-1.5-8.68-.005-13.232 1.5-17.896 1.5-1.144 0-2.197-.552-2.085-1.602z" fill="#000" fill-opacity=".7"/><path d="M67.862 15.1c-.81.567-1.798.9-2.862.9H44a4.982 4.982 0 01-3.376-1.311c2.933-2.31 7.174-3.687 13.372-3.689 6.543-.002 10.914 1.54 13.866 4.1z" fill="#fff"/><path d="M42 25a6 6 0 00-6 6v7a6 6 0 0012 0v-2h.083a6.002 6.002 0 0111.834 0H60a6 6 0 0012 0v-5a6 6 0 00-6-6H42z" fill="#7BB24B"/><path d="M72 31a6 6 0 00-6-6H42a6 6 0 00-6 6v6a6 6 0 0012 0v-2h.083a6.002 6.002 0 0111.834 0H60a6 6 0 0012 0v-4z" fill="#88C553"/></g><g transform="translate(112, 122)"><path fill-rule="evenodd" clip-rule="evenodd" d="M16 8c0 4.418 5.373 8 12 8s12-3.582 12-8" fill="#000" fill-opacity=".16"/></g><g transform="translate(84, 90)"><path d="M44 22c0 7.732-6.268 14-14 14s-14-6.268-14-14S22.268 8 30 8s14 6.268 14 14zm52 0c0 7.732-6.268 14-14 14s-14-6.268-14-14S74.268 8 82 8s14 6.268 14 14z" fill="#fff"/><path d="M36 22a6 6 0 11-12 0 6 6 0 0112 0zm52 0a6 6 0 11-12 0 6 6 0 0112 0z" fill="#000" fill-opacity=".7"/></g><g transform="translate(84, 82)"><path fill-rule="evenodd" clip-rule="evenodd" d="M26.547 6.148c-5.807.269-15.195 4.488-14.953 10.344.008.192.29.276.427.129 2.755-2.96 22.316-5.95 29.205-4.365.63.145 1.11-.477.71-.927-3.422-3.848-10.186-5.426-15.389-5.18zm59.906 0c5.807.269 15.195 4.488 14.953 10.344-.008.192-.29.276-.427.129-2.755-2.96-22.316-5.95-29.205-4.365-.63.145-1.11-.477-.71-.927 3.422-3.848 10.186-5.426 15.389-5.18z" fill="#000" fill-opacity=".6"/></g><g transform="translate(7, 0)"><path d="M40 145c-.617-30.836 28.319-95.205 39-108 7.923-9.491 29.695-17.45 54-17 24.305.45 46.862 5.812 55 16 12.324 15.428 37.869 74.079 38 109 .093 24.8-9.537 49.66-23 51-7.601.757-17.257-.226-28.859-1.406-5.309-.54-11.026-1.121-17.141-1.597v-12.386c18.92-8.988 32-28.272 32-50.611v-28.436c-10.509-5.79-19.455-12.78-26.909-19.882 3.356 6.24 7.194 11.908 11.522 16.191-30.582-8.58-51.724-26.152-64.393-39.93-5.825 11.08-16.257 27.282-32.22 39.625V130c0 22.339 13.08 41.623 32 50.611v13.135c-6.952.951-13.414 2.159-19.36 3.271h-.002c-10.849 2.028-19.983 3.735-27.254 2.983-14.222-1.469-21.888-30.204-22.384-55z" fill="#C93305"/></g><g transform="translate(56, 72)"><path d="M83.998 66.938c-2.5-3.336-12.267-4.749-19.277-3.474-9.653 1.757-13.744 12.303-12.506 14.215.772 1.191 2.482.793 4.26.379.814-.19 1.642-.383 2.401-.428 1.486-.089 3.34.218 5.446.567 4.981.824 11.37 1.88 17.628-1.508a6.041 6.041 0 002.048-1.85 6.041 6.041 0 002.048 1.85c6.257 3.389 12.647 2.332 17.628 1.508 2.106-.349 3.96-.656 5.446-.567.759.045 1.587.238 2.401.428 1.778.414 3.488.812 4.26-.379 1.238-1.912-2.853-12.458-12.507-14.215-7.009-1.275-16.775.138-19.276 3.474z" fill="#724133"/></g></g></svg>